<?xml version="1.0" encoding="utf-8"?>
<!-- Generator: Adobe Illustrator 23.0.1, SVG Export Plug-In . SVG Version: 6.00 Build 0)  -->
<svg version="1.1" id="Layer_1" xmlns="http://www.w3.org/2000/svg" xmlns:xlink="http://www.w3.org/1999/xlink" x="0px" y="0px"
	 viewBox="0 0 900 900" style="enable-background:new 0 0 900 900;" xml:space="preserve">
<style type="text/css">
	.st0{fill:#215076;}
	.st1{fill:#FFFFFF;}
</style>
<path class="st0" d="M448.7,900L448.7,900c-248.5,0-450-201.5-450-450v0c0-248.5,201.5-450,450-450h0c248.5,0,450,201.5,450,450v0
	C898.7,698.5,697.2,900,448.7,900z"/>
<g>
	<path class="st1" d="M497.2,609.5v-16.4c38-4.7,42.7-10.5,34.5-32.8c-7.6-22.8-19.3-52.1-31.6-88.9H373.8
		c-9.4,26.3-18.1,49.1-26.3,73.1c-12.9,38-4.7,42.7,43.3,48.5v16.4H255.6v-16.4c36.9-4.7,46.2-8.8,66.7-61.4l121.1-307.1l18.7-3.5
		c36.8,100,77.2,210.6,114.1,311.8c18.7,50.9,24,55.6,65.5,60.2v16.4H497.2z M438.7,297.7C420,348,400.1,401.3,382.6,447.5H492
		L438.7,297.7z"/>
</g>
</svg>
